<svg width="600" height="600" viewBox="0 0 600 600" fill="none" xmlns="http://www.w3.org/2000/svg">
<circle cx="300" cy="300" r="300" fill="white"/>
<path d="M531.21 373.093L389 295L531.21 216.907C543.005 210.43 547.171 195.523 540.442 183.87L520.962 150.129C514.234 138.476 499.242 134.63 487.735 141.606L349 225.718L352.475 63.514C352.763 50.061 341.937 39 328.48 39H289.52C276.064 39 265.237 50.061 265.526 63.514L269 225.718L130.265 141.607C118.759 134.631 103.766 138.477 97.038 150.13L77.558 183.871C70.83 195.524 74.996 210.431 86.791 216.908L229 295L86.79 373.093C74.995 379.57 70.829 394.477 77.558 406.13L97.038 439.871C103.766 451.524 118.759 455.37 130.265 448.394L269 364.282L265.525 526.486C265.237 539.939 276.064 551 289.52 551H328.481C341.937 551 352.764 539.939 352.476 526.486L349 364.282L487.735 448.393C499.241 455.369 514.234 451.523 520.962 439.87L540.442 406.129C547.17 394.476 543.005 379.57 531.21 373.093Z" fill="#E94D35"/>
</svg>
